{
  "accessors": [
    {
      "bufferView": 2,
      "componentType": 5126,
      "count": 658,
      "max": [
        116.70399475097656,
        122.36236572265625,
        21.218902587890625
      ],
      "min": [
        -116.70399475097656,
        -358.69000244140625,
        0.0
      ],
      "type": "VEC3"
    },
    {
      "bufferView": 2,
      "byteOffset": 7896,
      "componentType": 5126,
      "count": 658,
      "max": [
        1.0,
        1.0,
        1.0
      ],
      "min": [
        -1.0,
        -1.0,
        -1.0
      ],
      "type": "VEC3"
    },
    {
      "bufferView": 1,
      "componentType": 5126,
      "count": 658,
      "max": [
        1.0277777910232544,
        1.0
      ],
      "min": [
        0.0020000000949949026,
        0.0
      ],
      "type": "VEC2"
    },
    {
      "bufferView": 0,
      "componentType": 5125,
      "count": 2232,
      "type": "SCALAR"
    },
    {
      "bufferView": 2,
      "byteOffset": 15792,
      "componentType": 5126,
      "count": 150,
      "max": [
        21.21658706665039,
        -357.029052734375,
        35.433624267578125
      ],
      "min": [
        -21.21658706665039,
        -643.8699951171875,
        -14.214558601379395
      ],
      "type": "VEC3"
    },
    {
      "bufferView": 2,
      "byteOffset": 17592,
      "componentType": 5126,
      "count": 150,
      "max": [
        0.9974229335784912,
        1.0,
        0.9758974313735962
      ],
      "min": [
        -0.9974228739738464,
        -1.0,
        -0.9758972525596619
      ],
      "type": "VEC3"
    },
    {
      "bufferView": 3,
      "componentType": 5126,
      "count": 150,
      "max": [
        0.9823195338249207,
        0.8650854229927063,
        0.9999937415122986,
        1.0
      ],
      "min": [
        -0.982636570930481,
        -0.8650854229927063,
        -0.9999938011169434,
        1.0
      ],
      "type": "VEC4"
    },
    {
      "bufferView": 1,
      "byteOffset": 5264,
      "componentType": 5126,
      "count": 150,
      "max": [
        0.7478609085083008,
        0.9995000958442688
      ],
      "min": [
        -0.19225949048995972,
        -0.8871978521347046
      ],
      "type": "VEC2"
    },
    {
      "bufferView": 0,
      "byteOffset": 8928,
      "componentType": 5125,
      "count": 648,
      "type": "SCALAR"
    }
  ],
  "asset": {
    "extras": {
      "author": "Anthony Yanez (https://sketchfab.com/paulyanez)",
      "license": "CC-BY-4.0 (http://creativecommons.org/licenses/by/4.0/)",
      "source": "https://sketchfab.com/3d-models/spatula-spongebob-c039015dad6245cabd9044c67ada4252",
      "title": "Spatula (Spongebob)"
    },
    "generator": "Sketchfab-12.66.0",
    "version": "2.0"
  },
  "bufferViews": [
    {
      "buffer": 0,
      "byteLength": 11520,
      "name": "floatBufferViews",
      "target": 34963
    },
    {
      "buffer": 0,
      "byteLength": 6464,
      "byteOffset": 11520,
      "byteStride": 8,
      "name": "floatBufferViews",
      "target": 34962
    },
    {
      "buffer": 0,
      "byteLength": 19392,
      "byteOffset": 17984,
      "byteStride": 12,
      "name": "floatBufferViews",
      "target": 34962
    },
    {
      "buffer": 0,
      "byteLength": 2400,
      "byteOffset": 37376,
      "byteStride": 16,
      "name": "floatBufferViews",
      "target": 34962
    }
  ],
  "buffers": [
    {
      "byteLength": 39776,
      "uri": "scene.bin"
    }
  ],
  "images": [
    {
      "uri": "textures/02_-_Default_baseColor.jpeg"
    },
    {
      "uri": "textures/03_-_Default_baseColor.jpeg"
    },
    {
      "uri": "textures/03_-_Default_normal.png"
    }
  ],
  "materials": [
    {
      "doubleSided": true,
      "name": "02_-_Default",
      "pbrMetallicRoughness": {
        "baseColorTexture": {
          "index": 0
        },
        "metallicFactor": 0.5443978659,
        "roughnessFactor": 0.1934070122
      }
    },
    {
      "doubleSided": true,
      "name": "03_-_Default",
      "normalTexture": {
        "index": 2
      },
      "pbrMetallicRoughness": {
        "baseColorTexture": {
          "index": 1
        },
        "metallicFactor": 0.8919588415,
        "roughnessFactor": 0.8929713596
      }
    }
  ],
  "meshes": [
    {
      "name": "Box001_02 - Default_0",
      "primitives": [
        {
          "attributes": {
            "NORMAL": 1,
            "POSITION": 0,
            "TEXCOORD_0": 2
          },
          "indices": 3,
          "material": 0,
          "mode": 4
        }
      ]
    },
    {
      "name": "Box001_03 - Default_0",
      "primitives": [
        {
          "attributes": {
            "NORMAL": 5,
            "POSITION": 4,
            "TANGENT": 6,
            "TEXCOORD_0": 7
          },
          "indices": 8,
          "material": 1,
          "mode": 4
        }
      ]
    }
  ],
  "nodes": [
    {
      "children": [
        1
      ],
      "matrix": [
        1.0,
        0.0,
        0.0,
        0.0,
        0.0,
        2.220446049250313e-16,
        -1.0,
        0.0,
        0.0,
        1.0,
        2.220446049250313e-16,
        0.0,
        0.0,
        0.0,
        0.0,
        1.0
      ],
      "name": "Sketchfab_model"
    },
    {
      "children": [
        2
      ],
      "matrix": [
        1.0,
        0.0,
        0.0,
        0.0,
        0.0,
        0.0,
        1.0,
        0.0,
        0.0,
        -1.0,
        0.0,
        0.0,
        0.0,
        0.0,
        0.0,
        1.0
      ],
      "name": "Spatula.FBX"
    },
    {
      "children": [
        3
      ],
      "name": "RootNode"
    },
    {
      "children": [
        4,
        5
      ],
      "matrix": [
        1.0,
        0.0,
        0.0,
        0.0,
        0.0,
        0.9999999999999867,
        1.62920685387035e-07,
        0.0,
        0.0,
        -1.3712933380732203e-07,
        0.8416938185691721,
        0.0,
        3.4539709091186523,
        659.4365234375,
        -16.134292602539063,
        1.0
      ],
      "name": "Box001"
    },
    {
      "mesh": 0,
      "name": "Box001_02 - Default_0"
    },
    {
      "mesh": 1,
      "name": "Box001_03 - Default_0"
    }
  ],
  "samplers": [
    {
      "magFilter": 9729,
      "minFilter": 9987,
      "wrapS": 10497,
      "wrapT": 10497
    }
  ],
  "scene": 0,
  "scenes": [
    {
      "name": "Sketchfab_Scene",
      "nodes": [
        0
      ]
    }
  ],
  "textures": [
    {
      "sampler": 0,
      "source": 0
    },
    {
      "sampler": 0,
      "source": 1
    },
    {
      "sampler": 0,
      "source": 2
    }
  ]
}
